M48
; DRILL file {KiCad 8.0.8} date 2025-02-03T20:11:21-0300
; FORMAT={-:-/ absolute / inch / decimal}
; #@! TF.CreationDate,2025-02-03T20:11:21-03:00
; #@! TF.GenerationSoftware,Kicad,Pcbnew,8.0.8
; #@! TF.FileFunction,Plated,1,4,PTH
FMAT,2
INCH
; #@! TA.AperFunction,Plated,PTH,ViaDrill
T1C0.0118
; #@! TA.AperFunction,Plated,PTH,ComponentDrill
T2C0.0236
; #@! TA.AperFunction,Plated,PTH,ComponentDrill
T3C0.0276
; #@! TA.AperFunction,Plated,PTH,ComponentDrill
T4C0.0300
; #@! TA.AperFunction,Plated,PTH,ComponentDrill
T5C0.0315
; #@! TA.AperFunction,Plated,PTH,ComponentDrill
T6C0.0354
; #@! TA.AperFunction,Plated,PTH,ComponentDrill
T7C0.0374
; #@! TA.AperFunction,Plated,PTH,ComponentDrill
T8C0.0394
; #@! TA.AperFunction,Plated,PTH,ComponentDrill
T9C0.0472
; #@! TA.AperFunction,Plated,PTH,ComponentDrill
T10C0.0512
%
G90
G05
T1
X3.775Y-1.675
X3.775Y-1.775
X3.775Y-1.875
X3.775Y-1.975
X3.775Y-2.075
X3.775Y-2.175
X3.775Y-2.275
X3.775Y-2.375
X3.775Y-2.575
X3.775Y-2.675
X3.775Y-2.875
X3.775Y-2.975
X3.775Y-3.175
X3.775Y-3.475
X3.775Y-3.675
X3.775Y-3.775
X3.775Y-3.975
X3.875Y-1.675
X3.875Y-1.775
X3.875Y-1.875
X3.875Y-1.975
X3.875Y-2.275
X3.875Y-2.375
X3.875Y-2.575
X3.875Y-2.675
X3.875Y-2.875
X3.875Y-2.975
X3.875Y-3.175
X3.875Y-3.475
X3.875Y-3.675
X3.875Y-3.775
X3.875Y-3.975
X3.975Y-1.675
X3.975Y-1.775
X3.975Y-2.275
X4.075Y-1.775
X4.175Y-1.775
X4.175Y-1.875
X4.175Y-1.975
X4.275Y-1.775
X4.275Y-1.875
X4.275Y-1.975
X4.375Y-1.775
X4.375Y-1.875
X4.375Y-1.975
X4.675Y-3.475
X4.675Y-3.775
X4.675Y-3.875
X4.775Y-2.975
X4.775Y-3.075
X4.775Y-3.275
X4.775Y-3.475
X4.775Y-3.575
X4.775Y-3.775
X4.775Y-3.875
X4.875Y-3.775
X4.875Y-3.875
X4.975Y-3.775
X4.975Y-3.875
X5.075Y-3.875
X5.175Y-3.875
X5.275Y-3.875
X5.375Y-3.775
X5.375Y-3.875
X5.475Y-3.875
X5.575Y-3.875
X5.675Y-3.775
X5.675Y-3.875
X5.775Y-1.775
X5.775Y-3.775
X5.775Y-3.875
X5.87Y-1.86
X5.875Y-1.775
X5.875Y-3.875
X5.975Y-1.975
X5.975Y-3.875
X6.075Y-2.975
X6.075Y-3.075
X6.075Y-3.275
X6.075Y-3.875
X6.175Y-3.075
X6.175Y-3.275
X6.175Y-3.775
X6.175Y-3.875
X6.275Y-3.275
X6.275Y-3.875
X6.375Y-2.975
X6.375Y-3.275
X6.375Y-3.875
X6.475Y-2.975
X6.475Y-3.275
X6.575Y-2.975
X6.575Y-3.275
X6.775Y-3.875
X6.875Y-3.775
X6.875Y-3.875
X6.975Y-3.775
X6.975Y-3.875
X7.075Y-3.775
X7.075Y-3.875
X7.175Y-3.775
X7.175Y-3.875
X7.275Y-3.775
X7.275Y-3.875
X7.275Y-3.975
X7.375Y-1.675
X7.375Y-3.775
X7.375Y-3.875
X7.375Y-3.975
X7.475Y-1.675
X7.475Y-3.775
X7.475Y-3.875
X7.475Y-3.975
T3
X6.2Y-2.165
X6.2Y-2.465
T4
X6.725Y-1.8
X6.725Y-1.9
X6.725Y-2.0
X6.725Y-2.1
X6.725Y-2.2
X6.725Y-2.3
X6.725Y-2.4
X6.725Y-2.5
X6.725Y-2.6
X6.725Y-2.7
X6.725Y-2.8
X6.725Y-2.9
X6.725Y-3.0
X6.725Y-3.1
X6.725Y-3.2
X6.725Y-3.3
X6.725Y-3.4
X6.725Y-3.5
X6.725Y-3.6
X6.725Y-3.7
X7.325Y-1.8
X7.325Y-1.9
X7.325Y-2.0
X7.325Y-2.1
X7.325Y-2.2
X7.325Y-2.3
X7.325Y-2.4
X7.325Y-2.5
X7.325Y-2.6
X7.325Y-2.7
X7.325Y-2.8
X7.325Y-2.9
X7.325Y-3.0
X7.325Y-3.1
X7.325Y-3.2
X7.325Y-3.3
X7.325Y-3.4
X7.325Y-3.5
X7.325Y-3.6
X7.325Y-3.7
T5
X5.205Y-2.3
X5.205Y-2.4
X5.505Y-2.3
X5.505Y-2.4
X6.825Y-1.8
X6.825Y-1.9
X6.825Y-2.0
X6.825Y-2.1
X6.825Y-2.2
X6.825Y-2.3
X6.825Y-2.4
X6.825Y-2.5
X6.825Y-2.6
X6.825Y-2.7
X6.825Y-2.8
X6.825Y-2.9
X6.825Y-3.0
X6.825Y-3.1
X6.825Y-3.2
X6.825Y-3.3
X6.825Y-3.4
X6.825Y-3.5
X6.825Y-3.6
X6.825Y-3.7
X7.525Y-1.8
X7.525Y-1.9
X7.525Y-2.0
X7.525Y-2.1
X7.525Y-2.2
X7.525Y-2.3
X7.525Y-2.4
X7.525Y-2.5
X7.525Y-2.6
X7.525Y-2.7
X7.525Y-2.8
X7.525Y-2.9
X7.525Y-3.0
X7.525Y-3.1
X7.525Y-3.2
X7.525Y-3.3
X7.525Y-3.4
X7.525Y-3.5
X7.525Y-3.6
X7.525Y-3.7
T6
X5.1078Y-1.9776
X5.2652Y-1.9776
X5.4227Y-1.9776
T7
X3.7992Y-2.5
X3.7992Y-2.7756
X3.7992Y-3.0512
X3.7992Y-3.3268
X3.7992Y-3.6024
X3.7992Y-3.878
X3.8976Y-2.5
X3.8976Y-2.7756
X3.8976Y-3.0512
X3.8976Y-3.3268
X3.8976Y-3.6024
X3.8976Y-3.878
X3.9961Y-2.5
X3.9961Y-2.7756
X3.9961Y-3.0512
X3.9961Y-3.3268
X3.9961Y-3.6024
X3.9961Y-3.878
X4.252Y-2.5
X4.252Y-2.7756
X4.252Y-3.0512
X4.252Y-3.3268
X4.252Y-3.6024
X4.252Y-3.878
X4.3504Y-2.5
X4.3504Y-2.7756
X4.3504Y-3.0512
X4.3504Y-3.3268
X4.3504Y-3.6024
X4.3504Y-3.878
X4.4488Y-2.5
X4.4488Y-2.7756
X4.4488Y-3.0512
X4.4488Y-3.3268
X4.4488Y-3.6024
X4.4488Y-3.878
T8
X4.855Y-1.8
X4.855Y-1.9
X4.855Y-2.3
X4.855Y-2.4
X4.9Y-2.8
X4.9Y-3.5
X5.0Y-2.8
X5.0Y-3.5
X5.1Y-2.8
X5.1Y-3.5
X5.1016Y-3.8
X5.2Y-2.8
X5.2Y-3.5
X5.2Y-3.8
X5.3Y-2.8
X5.3Y-3.5
X5.4Y-2.8
X5.4Y-3.5
X5.5Y-2.8
X5.5Y-3.5
X5.5016Y-3.8
X5.6Y-2.8
X5.6Y-3.5
X5.6Y-3.8
X5.655Y-1.8
X5.655Y-1.9
X5.655Y-2.3
X5.655Y-2.4
X5.8Y-2.8
X5.8Y-3.5
X5.85Y-2.2
X5.9Y-2.8
X5.9Y-3.5
X5.9016Y-3.8
X5.95Y-2.2
X5.975Y-2.575
X6.0Y-2.8
X6.0Y-3.5
X6.0Y-3.8
X6.05Y-2.2
X6.075Y-2.575
X6.1Y-2.8
X6.1Y-3.5
X6.2Y-2.8
X6.2Y-3.5
X6.24Y-2.64
X6.3Y-2.8
X6.3Y-3.5
X6.3016Y-3.8
X6.34Y-2.64
X6.4Y-2.8
X6.4Y-3.5
X6.4Y-3.8
X6.44Y-2.64
X6.5Y-2.8
X6.5Y-3.5
X6.54Y-2.64
T9
X5.029Y-1.8102
X5.029Y-2.0465
X5.5015Y-1.8102
X5.5015Y-2.0465
T10
X4.0Y-1.9
X4.0Y-2.1
T2
G00X4.5526Y-1.8197
M15
G01X4.4974Y-1.8197
M16
G05
G00X4.5526Y-1.9654
M15
G01X4.4974Y-1.9654
M16
G05
G00X4.5526Y-2.1346
M15
G01X4.4974Y-2.1346
M16
G05
G00X4.5526Y-2.2803
M15
G01X4.4974Y-2.2803
M16
G05
M30
